<svg version="1.1" id="Layer_1" xmlns="http://www.w3.org/2000/svg" xmlns:xlink="http://www.w3.org/1999/xlink" x="0px" y="0px"
	 width="100%" viewBox="0 0 500 500" enable-background="new 0 0 500 500" xml:space="preserve">
<path fill="#000000" opacity="1.000000" stroke="none" 
	d="
M501.000000,465.000000 
	C501.000000,472.354248 501.000000,479.708496 500.666016,487.475403 
	C498.614380,486.920410 496.896729,485.952759 494.940674,484.609192 
	C494.212219,484.155975 493.722168,484.011078 493.232056,484.010834 
	C456.788910,483.993286 420.345795,483.979126 383.902710,484.022552 
	C382.896301,484.023743 381.890594,484.653931 380.568451,485.144897 
	C379.418335,486.025787 378.436981,486.639160 377.774994,487.498505 
	C374.284149,492.029846 376.557587,496.518280 378.000000,501.000000 
	C252.402420,501.000000 126.804832,501.000000 1.000000,501.000000 
	C1.000000,361.645844 1.000000,222.291580 1.349440,82.421654 
	C3.482112,82.921577 5.265345,83.937164 7.512882,84.993141 
	C21.665802,85.020363 35.354618,85.038040 49.042755,84.950394 
	C50.553970,84.940727 52.061329,84.328728 53.912495,84.054283 
	C57.896965,82.919907 59.903221,80.304901 59.969990,76.581833 
	C60.051224,72.052017 56.934597,69.713745 52.982277,67.618797 
	C37.607353,67.146004 22.468348,67.045486 7.329187,67.008652 
	C6.833447,67.007446 6.336128,67.654579 5.531762,68.128090 
	C3.815986,69.171127 2.407993,70.085564 1.000000,71.000000 
	C1.000000,63.645748 1.000000,56.291500 1.366312,48.403923 
	C3.971880,49.178600 6.174926,51.520981 8.457173,51.600868 
	C15.333253,51.841579 22.300335,51.652573 29.113283,50.742725 
	C33.454506,50.162971 35.933586,44.962734 34.886684,40.864082 
	C33.856884,36.832382 29.538277,34.339405 25.047121,34.825542 
	C22.091505,35.145470 19.082127,34.959866 16.097208,35.019863 
	C10.890618,35.124512 5.409704,33.853897 1.000000,38.000000 
	C1.000000,30.645748 1.000000,23.291496 1.330477,15.401827 
	C2.983558,15.586330 4.306161,16.306252 5.918125,17.377157 
	C6.690612,17.826378 7.173709,18.010468 7.656871,18.010639 
	C50.172821,18.025774 92.688782,18.033747 135.204681,17.986656 
	C136.223465,17.985527 137.241547,17.358372 138.576920,16.875336 
	C140.261948,14.598357 142.879166,12.365299 142.712616,10.363895 
	C142.446152,7.161788 140.332703,4.113379 139.000000,0.999999 
	C259.584381,1.000000 380.168793,1.000000 501.000000,1.000000 
	C501.000000,94.020752 501.000000,187.041718 500.645752,280.607056 
	C494.930267,275.231537 489.542145,269.335602 484.233002,263.369354 
	C483.293854,262.313995 482.684113,260.965485 481.950500,259.400208 
	C482.359436,257.693542 482.740112,256.338989 483.456543,254.769211 
	C485.274384,246.578812 486.392059,238.616440 482.971252,230.419006 
	C482.189545,226.886978 481.677155,224.392578 484.133087,221.038864 
	C496.848297,203.675232 496.869049,179.192093 482.512543,162.564529 
	C477.592102,156.865784 477.087616,151.122650 475.846069,144.743652 
	C474.749878,139.111267 472.484070,133.708069 470.760193,128.195694 
	C469.806061,125.144806 468.592743,122.131409 468.052063,119.004990 
	C467.245819,114.343399 467.454041,109.466057 466.315033,104.909363 
	C461.628510,86.160133 442.428009,67.498978 418.164001,67.900551 
	C416.815399,67.922859 414.728546,66.615448 414.191498,65.395828 
	C410.641571,57.334370 405.899139,50.249573 398.618286,45.137348 
	C381.925690,33.416756 364.208191,30.697023 345.284882,39.348915 
	C343.583679,40.126728 341.915344,40.976479 340.014221,41.898304 
	C329.791229,19.410860 312.255035,7.714623 288.193390,9.381624 
	C268.321838,10.758331 253.719727,22.027411 245.404663,41.032417 
	C232.489304,29.948116 218.147522,24.017462 200.582245,26.815544 
	C182.713425,29.661980 171.387711,40.584301 162.602020,55.033905 
	C145.855545,48.655880 129.970093,49.160927 115.084740,59.017662 
	C100.229362,68.854546 92.298386,82.826057 91.835800,101.297066 
	C71.977661,98.851837 55.918331,105.818024 43.982887,120.780434 
	C31.758747,136.104752 31.233141,153.591217 37.453377,170.748367 
	C30.971577,176.637314 24.157497,181.784058 18.642656,188.070557 
	C9.136457,198.906921 7.438910,212.495193 9.301823,226.044891 
	C11.097919,239.108582 18.403931,249.864334 28.720671,258.012878 
	C34.819798,262.830170 41.872250,266.389038 49.841812,267.326141 
	C41.814205,278.876312 34.090370,290.246490 25.916225,301.283081 
	C21.067572,307.829681 19.716568,315.421753 20.289864,322.802795 
	C20.683744,327.873932 24.364281,332.774780 26.912365,337.572998 
	C30.431524,344.199799 34.267624,350.658264 37.783737,357.457092 
	C34.179028,361.196167 30.532564,364.474213 27.378111,368.171967 
	C15.200148,382.447357 7.795299,398.548615 9.078826,418.289551 
	C8.377197,429.934692 11.498941,440.412354 16.032619,450.314484 
	C20.432884,459.925262 27.143257,468.281097 35.499649,474.704224 
	C42.607121,480.167328 50.293758,485.406952 58.535183,488.740234 
	C70.808090,493.704102 83.949959,494.308472 97.173210,492.062347 
	C113.313446,489.320770 126.665535,481.632080 138.307083,469.934631 
	C146.113937,462.613983 151.718140,454.179321 154.951538,444.315430 
	C156.902542,438.363617 158.377289,432.255646 160.459045,426.173584 
	C161.972000,425.892578 163.199097,425.874481 164.195740,425.386108 
	C177.981827,418.630890 191.914352,412.142639 205.430969,404.881561 
	C213.421585,400.589020 217.969025,393.419861 217.943542,383.456299 
	C218.016159,372.331207 218.035980,361.666321 218.091949,351.083496 
	C218.128113,351.165497 218.288467,351.085358 218.662903,351.031952 
	C222.646133,349.654846 226.400070,348.625793 229.828812,346.936615 
	C234.653992,344.559418 239.237991,341.692657 244.050354,339.353760 
	C249.730438,348.457764 255.586868,357.069946 260.763031,366.073212 
	C267.097076,377.090485 272.122711,388.689362 275.425995,401.076355 
	C278.822388,413.812500 283.777588,426.169434 286.603699,439.010773 
	C289.345428,451.468536 290.238220,464.332214 291.964722,477.014709 
	C292.904266,483.916260 295.584320,489.583221 302.927856,492.352264 
	C304.162079,492.848206 305.257599,492.951324 306.426544,493.078827 
	C306.499969,493.103210 306.566376,492.963440 306.851440,493.326202 
	C316.608582,493.791687 326.080597,493.935822 335.552887,493.954956 
	C337.069824,493.958038 338.587891,493.401947 340.481995,493.097595 
	C341.430695,492.733551 342.002838,492.376282 342.918427,492.040161 
	C349.487762,490.601288 353.323547,486.453064 354.743500,480.521027 
	C356.252563,474.216858 357.115356,467.742096 357.987244,461.304840 
	C359.477875,450.299591 360.843262,439.275482 362.099548,428.240906 
	C363.541016,415.579651 364.806488,402.898346 366.546570,390.177612 
	C367.696869,390.422546 368.435883,390.929443 369.203217,390.976776 
	C380.681732,391.685272 392.157440,392.698059 403.647034,392.905884 
	C419.115082,393.185730 432.542389,387.964996 442.604828,375.826538 
	C447.352417,370.099457 451.100220,363.683777 452.030579,355.597839 
	C452.401428,348.188446 452.808563,341.149811 452.577881,334.132202 
	C452.496399,331.652802 450.857391,329.224640 449.983704,326.387573 
	C447.700531,320.161743 445.658508,314.179474 442.940094,308.522247 
	C440.377686,303.189758 437.102936,298.199615 434.587799,293.033325 
	C449.561676,293.436981 461.267120,287.399048 471.503174,277.237488 
	C475.242371,280.504669 478.651367,283.771576 482.165588,287.413452 
	C482.847351,290.630341 483.912567,293.470215 483.924866,296.314606 
	C484.048401,324.903870 483.982269,353.493958 484.040833,382.083649 
	C484.044312,383.778137 484.658691,385.471405 484.957886,387.545868 
	C485.161469,391.808807 488.230621,393.021362 491.052246,392.823608 
	C494.417603,392.587677 497.688293,391.001312 501.000000,390.000000 
	C501.000000,400.020905 501.000000,410.041779 500.641846,420.565369 
	C498.184540,420.044708 496.085388,419.021301 493.820801,417.589844 
	C462.747772,417.120422 431.840179,417.052917 400.932556,417.039856 
	C400.283966,417.039581 399.635101,417.667358 398.633270,418.015381 
	C392.475037,419.361786 392.265503,424.325439 392.553802,428.529602 
	C392.686493,430.464935 396.010071,432.181488 398.088348,434.395050 
	C430.167816,434.837494 462.045746,434.882141 494.290100,434.981354 
	C496.771027,434.023926 498.885529,433.011963 501.000000,432.000000 
	C501.000000,439.354248 501.000000,446.708496 500.653320,454.510071 
	C498.238556,453.641815 496.170502,452.326202 493.919189,450.602173 
	C476.766235,450.127014 459.796539,450.048767 442.826782,450.036682 
	C442.172333,450.036224 441.517426,450.671753 440.505005,451.003723 
	C436.106384,452.465454 434.168884,455.791901 434.523346,459.626740 
	C434.772644,462.323517 433.797760,466.722229 439.054688,467.410400 
	C457.485809,467.830719 475.697144,467.861115 494.274536,467.920197 
	C496.760406,466.965881 498.880188,465.982910 501.000000,465.000000 
M55.018349,35.016819 
	C54.402546,35.746510 53.931290,36.778458 53.146103,37.153946 
	C49.610935,38.844501 49.504723,42.621635 50.608673,44.717575 
	C51.998486,47.356239 55.378853,48.946461 58.267059,51.805302 
	C66.403671,51.869644 74.540398,51.974693 82.676765,51.952198 
	C83.829025,51.949013 84.979561,51.324879 86.871918,51.057140 
	C91.696190,49.819229 93.438309,46.289486 92.864586,41.830299 
	C92.393204,38.166416 90.775658,34.864761 85.650002,34.232750 
	C77.187592,34.159782 68.725067,34.038368 60.262875,34.058258 
	C58.729706,34.061867 57.197899,34.644650 55.018349,35.016819 
z"/>
<path fill="#4A505E" opacity="1.000000" stroke="none" 
	d="
M482.060333,287.038483 
	C478.651367,283.771576 475.242371,280.504669 471.577179,276.849121 
	C470.130493,274.727478 469.163879,272.775085 467.714325,271.296021 
	C455.471466,258.803711 443.140381,246.397903 431.112488,233.751617 
	C435.161743,229.878433 438.934265,226.219742 442.968414,222.814087 
	C454.519318,234.319077 465.778503,245.601624 477.139008,256.781250 
	C478.444122,258.065582 480.314148,258.775879 481.922241,259.752350 
	C482.684113,260.965485 483.293854,262.313995 484.233002,263.369354 
	C489.542145,269.335602 494.930267,275.231537 500.645752,281.075714 
	C501.000000,317.020905 501.000000,353.041779 501.000000,389.531311 
	C497.688293,391.001312 494.417603,392.587677 491.052246,392.823608 
	C488.230621,393.021362 485.161469,391.808807 484.970795,387.065552 
	C485.009460,384.874939 484.999878,383.545288 484.999786,382.215607 
	C484.997345,352.796326 485.061707,323.376617 484.867615,293.958588 
	C484.852325,291.645813 483.038361,289.344910 482.060333,287.038483 
z"/>
<path fill="#47505F" opacity="1.000000" stroke="none" 
	d="
M5.628765,17.026173 
	C4.306161,16.306252 2.983558,15.586330 1.330477,14.933205 
	C1.000000,10.346804 1.000000,5.693608 1.000000,1.000000 
	C46.687553,1.000000 92.375122,1.000000 138.531342,0.999999 
	C140.332703,4.113379 142.446152,7.161788 142.712616,10.363895 
	C142.879166,12.365299 140.261948,14.598357 138.094604,16.804298 
	C134.303329,16.922289 131.311356,16.998251 128.319351,16.999348 
	C87.422493,17.014338 46.525627,17.018982 5.628765,17.026173 
z"/>
<path fill="#46505E" opacity="1.000000" stroke="none" 
	d="
M378.468658,501.000000 
	C376.557587,496.518280 374.284149,492.029846 377.774994,487.498505 
	C378.436981,486.639160 379.418335,486.025787 381.043335,485.189453 
	C419.615936,485.048340 457.397491,485.016693 495.179047,484.985077 
	C496.896729,485.952759 498.614380,486.920410 500.666016,487.944031 
	C501.000000,492.319336 501.000000,496.638702 501.000000,501.000000 
	C460.312439,501.000000 419.624878,501.000000 378.468658,501.000000 
z"/>
<path fill="#48505F" opacity="1.000000" stroke="none" 
	d="
M501.000000,431.541931 
	C498.885529,433.011963 496.771027,434.023926 494.064575,434.623718 
	C461.610626,434.140137 429.748718,434.068695 397.886780,433.997253 
	C396.010071,432.181488 392.686493,430.464935 392.553802,428.529602 
	C392.265503,424.325439 392.475037,419.361786 399.102783,418.018860 
	C431.279022,418.005341 462.632629,418.001617 493.986237,417.997894 
	C496.085388,419.021301 498.184540,420.044708 500.641846,421.034058 
	C501.000000,424.361298 501.000000,427.722565 501.000000,431.541931 
z"/>
<path fill="#48515F" opacity="1.000000" stroke="none" 
	d="
M494.102448,451.010590 
	C496.170502,452.326202 498.238556,453.641815 500.653320,454.978699 
	C501.000000,458.030609 501.000000,461.061188 501.000000,464.545898 
	C498.880188,465.982910 496.760406,466.965881 493.985779,467.630035 
	C475.165588,467.214294 457.000214,467.117371 438.834869,467.020447 
	C433.797760,466.722229 434.772644,462.323517 434.523346,459.626740 
	C434.168884,455.791901 436.106384,452.465454 440.980652,451.049561 
	C459.243530,451.071960 476.672974,451.041260 494.102448,451.010590 
z"/>
<path fill="#48515F" opacity="1.000000" stroke="none" 
	d="
M7.048578,84.952759 
	C5.265345,83.937164 3.482112,82.921577 1.349440,81.952995 
	C1.000000,78.638710 1.000000,75.277428 1.000000,71.458069 
	C2.407993,70.085564 3.815986,69.171127 6.003443,68.223419 
	C22.261330,68.127090 37.739750,68.064034 53.218174,68.000969 
	C56.934597,69.713745 60.051224,72.052017 59.969990,76.581833 
	C59.903221,80.304901 57.896965,82.919907 53.403587,84.039246 
	C38.887127,83.983269 25.221399,83.971764 11.556299,84.058609 
	C10.051892,84.068161 8.551065,84.641106 7.048578,84.952759 
z"/>
<path fill="#4A5260" opacity="1.000000" stroke="none" 
	d="
M1.000000,38.454109 
	C5.409704,33.853897 10.890618,35.124512 16.097208,35.019863 
	C19.082127,34.959866 22.091505,35.145470 25.047121,34.825542 
	C29.538277,34.339405 33.856884,36.832382 34.886684,40.864082 
	C35.933586,44.962734 33.454506,50.162971 29.113283,50.742725 
	C22.300335,51.652573 15.333253,51.841579 8.457173,51.600868 
	C6.174926,51.520981 3.971880,49.178600 1.366312,47.935295 
	C1.000000,44.969406 1.000000,41.938812 1.000000,38.454109 
z"/>
<path fill="#FE5463" opacity="1.000000" stroke="none" 
	d="
M430.835785,233.966110 
	C443.140381,246.397903 455.471466,258.803711 467.714325,271.296021 
	C469.163879,272.775085 470.130493,274.727478 471.246948,276.848816 
	C461.267120,287.399048 449.561676,293.436981 434.151978,293.023010 
	C430.632996,292.710876 427.996094,292.383514 424.817749,291.988953 
	C427.109161,287.471497 429.314880,284.096527 430.560852,280.398224 
	C431.858887,276.545166 432.639343,272.407288 432.909393,268.345001 
	C433.285370,262.690125 431.404816,260.559204 426.746674,260.022400 
	C421.389648,259.405060 418.077759,261.751343 417.035583,266.919678 
	C414.918823,277.417053 409.504120,285.752899 401.129669,292.453735 
	C377.331268,311.496002 342.396423,297.313843 335.796204,269.759613 
	C334.758575,265.427795 334.227448,260.977081 333.313660,256.612427 
	C332.511749,252.782211 329.827942,250.885971 326.094543,251.121155 
	C321.972565,251.380829 318.537476,253.205688 318.098969,257.838745 
	C317.251465,266.792847 319.041229,275.462555 323.069916,283.344269 
	C326.200378,289.468689 330.678436,294.896515 334.376282,300.748505 
	C334.834198,301.473114 334.176117,302.902924 333.815582,304.119812 
	C333.322113,304.435364 333.126434,304.695831 333.007690,305.006958 
	C333.006348,304.998871 333.020508,305.015564 332.673401,305.053589 
	C330.219910,307.739380 328.113556,310.387207 325.892639,313.240906 
	C325.581879,313.703278 325.333527,313.890533 324.679077,314.012634 
	C323.556061,314.685059 322.786896,315.353424 322.008850,316.010864 
	C322.000000,316.000000 322.020996,316.019562 321.652802,316.019897 
	C319.184845,317.678192 317.085114,319.336212 314.665222,321.000671 
	C313.918274,321.010712 313.491394,321.014221 312.838196,321.122864 
	C312.327942,321.422668 312.126587,321.681519 312.003845,322.002289 
	C312.000000,322.000000 312.003357,322.009552 311.667236,322.007385 
	C310.556976,322.341522 309.782837,322.677887 309.004333,323.007141 
	C309.000000,323.000000 309.010254,323.014740 308.627380,323.017059 
	C306.157318,323.680145 304.070099,324.340942 301.584076,325.062653 
	C298.736633,325.453979 296.288025,325.784363 293.407684,326.083923 
	C279.942749,326.089569 268.651337,321.179108 259.545166,313.935089 
	C254.682571,321.498322 250.145370,328.521362 245.655655,335.574615 
	C244.966766,336.656830 244.496506,337.878235 243.925125,339.035278 
	C239.237991,341.692657 234.653992,344.559418 229.828812,346.936615 
	C226.400070,348.625793 222.646133,349.654846 218.523575,350.576538 
	C217.935410,338.825165 217.861023,327.475861 217.969009,315.817596 
	C218.730103,314.912109 219.259567,314.256195 219.895294,313.728241 
	C225.546539,309.035339 227.345016,302.331635 224.933762,294.832977 
	C223.035095,288.928375 217.230270,284.785156 210.002228,284.175446 
	C204.271988,283.692078 197.107956,287.674835 194.507538,293.270020 
	C191.418182,299.917175 191.497147,309.579956 201.060303,316.413177 
	C200.931152,327.927460 200.837036,338.970490 200.369614,349.983276 
	C199.250473,349.951752 198.504669,349.950439 197.375748,349.970459 
	C184.290390,346.886047 174.309875,339.890717 167.406937,328.787262 
	C165.526047,325.761810 163.533463,324.395020 159.803467,325.509766 
	C152.610321,325.128815 145.726776,325.043854 138.467331,324.954651 
	C137.345337,324.639160 136.616058,324.277069 135.850693,324.024261 
	C121.721611,319.357727 111.006088,310.885468 105.355553,296.741852 
	C104.499603,294.599365 103.730995,292.668640 100.618492,292.924286 
	C86.020889,294.123322 74.753418,286.993500 64.242897,277.674072 
	C65.060150,275.543365 65.725555,273.645020 66.790527,272.006348 
	C74.852776,259.600952 82.993393,247.246521 91.502060,234.856308 
	C96.901924,234.560287 101.118233,232.839432 104.614853,228.993195 
	C109.044930,224.120148 110.606087,216.051697 107.780365,210.035873 
	C105.008026,204.133698 98.075584,200.454758 90.782425,201.015335 
	C84.192032,201.521896 77.824776,206.492722 76.697144,213.156998 
	C76.030128,217.099014 76.993996,221.316956 77.117737,225.727036 
	C67.992722,239.697433 58.974457,253.351639 49.956192,267.005829 
	C41.872250,266.389038 34.819798,262.830170 28.720671,258.012878 
	C18.403931,249.864334 11.097919,239.108582 9.301823,226.044891 
	C7.438910,212.495193 9.136457,198.906921 18.642656,188.070557 
	C24.157497,181.784058 30.971577,176.637314 37.453377,170.748367 
	C31.233141,153.591217 31.758747,136.104752 43.982887,120.780434 
	C55.918331,105.818024 71.977661,98.851837 91.835800,101.297066 
	C92.298386,82.826057 100.229362,68.854546 115.084740,59.017662 
	C129.970093,49.160927 145.855545,48.655880 162.602020,55.033905 
	C171.387711,40.584301 182.713425,29.661980 200.582245,26.815544 
	C218.147522,24.017462 232.489304,29.948116 245.404663,41.032417 
	C253.719727,22.027411 268.321838,10.758331 288.193390,9.381624 
	C312.255035,7.714623 329.791229,19.410860 340.014221,41.898304 
	C341.915344,40.976479 343.583679,40.126728 345.284882,39.348915 
	C364.208191,30.697023 381.925690,33.416756 398.618286,45.137348 
	C405.899139,50.249573 410.641571,57.334370 414.191498,65.395828 
	C414.728546,66.615448 416.815399,67.922859 418.164001,67.900551 
	C442.428009,67.498978 461.628510,86.160133 466.315033,104.909363 
	C467.454041,109.466057 467.245819,114.343399 468.052063,119.004990 
	C468.592743,122.131409 469.806061,125.144806 470.760193,128.195694 
	C472.484070,133.708069 474.749878,139.111267 475.846069,144.743652 
	C477.087616,151.122650 477.592102,156.865784 482.512543,162.564529 
	C496.869049,179.192093 496.848297,203.675232 484.133087,221.038864 
	C481.677155,224.392578 482.189545,226.886978 482.941772,230.874817 
	C482.973724,239.478424 483.047302,247.231430 483.120850,254.984436 
	C482.740112,256.338989 482.359436,257.693542 481.950500,259.400208 
	C480.314148,258.775879 478.444122,258.065582 477.139008,256.781250 
	C465.778503,245.601624 454.519318,234.319077 442.999023,222.405518 
	C443.225281,210.004684 437.951447,202.149078 428.762054,201.119232 
	C421.377441,200.291641 415.375702,202.671204 411.453278,209.269730 
	C407.846069,215.337967 408.474701,221.483215 412.053955,227.147461 
	C415.913330,233.254944 423.489532,235.722229 430.835785,233.966110 
M310.412048,234.519241 
	C310.598755,233.891190 310.947968,233.263382 310.948822,232.635086 
	C310.985840,205.837418 311.010925,179.039642 310.931763,152.242218 
	C310.928619,151.176102 309.898407,150.113052 308.918243,148.465622 
	C306.910736,144.195084 303.730377,141.917587 298.920593,143.169067 
	C294.882202,144.219833 292.884766,147.117783 292.881805,151.280533 
	C292.862030,178.886047 292.726318,206.493362 293.084900,234.094162 
	C293.119110,236.725388 295.751129,240.317459 298.169006,241.614639 
	C300.174438,242.690536 303.912811,241.596237 306.366150,240.401245 
	C307.977234,239.616486 308.668182,236.942642 310.412048,234.519241 
M200.817474,212.255569 
	C198.451553,218.117493 195.998825,223.946274 193.744507,229.850800 
	C191.563110,235.564270 193.187897,239.980255 197.975189,241.988419 
	C202.617737,243.935822 206.942886,241.749634 209.320679,236.101669 
	C211.386536,231.194611 213.041718,226.091675 215.441086,221.360687 
	C216.258026,219.749908 218.753952,218.089020 220.540604,218.023209 
	C229.685959,217.686417 238.853714,218.006439 248.006027,217.783920 
	C251.292572,217.704025 252.792938,219.073517 253.842972,221.916306 
	C255.744202,227.063599 257.778412,232.168243 259.951904,237.206650 
	C261.984772,241.919067 266.081696,243.688934 270.474182,242.032578 
	C274.921417,240.355560 277.158539,235.730682 275.274048,230.981339 
	C264.412292,203.606918 253.410355,176.288162 242.478119,148.941650 
	C240.985275,145.207352 238.621887,142.776474 234.312485,142.856293 
	C229.834381,142.939224 227.508011,145.529343 225.945084,149.458740 
	C217.707062,170.170181 209.364182,190.839935 200.817474,212.255569 
M293.593445,100.269432 
	C298.226868,102.482307 301.630737,100.115547 303.634857,96.514496 
	C304.781067,94.454971 305.070221,90.520859 303.834534,88.814186 
	C300.953033,84.834358 297.348938,81.041252 293.270294,78.324417 
	C277.842102,68.047508 260.995361,65.246925 242.938187,69.975891 
	C232.196091,72.789116 223.721558,79.225410 216.017746,86.738434 
	C213.050903,89.631798 212.885925,93.903183 215.128754,97.356644 
	C217.423172,100.889549 221.178619,102.102974 225.214584,100.261002 
	C226.962051,99.463470 228.488586,98.002480 229.863586,96.596504 
	C240.926971,85.283974 254.573029,83.254410 269.364075,85.676506 
	C279.056702,87.263695 285.561523,94.350716 293.593445,100.269432 
z"/>
<path fill="#DF4E61" opacity="1.000000" stroke="none" 
	d="
M334.035156,304.005951 
	C334.176117,302.902924 334.834198,301.473114 334.376282,300.748505 
	C330.678436,294.896515 326.200378,289.468689 323.069916,283.344269 
	C319.041229,275.462555 317.251465,266.792847 318.098969,257.838745 
	C318.537476,253.205688 321.972565,251.380829 326.094543,251.121155 
	C329.827942,250.885971 332.511749,252.782211 333.313660,256.612427 
	C334.227448,260.977081 334.758575,265.427795 335.796204,269.759613 
	C342.396423,297.313843 377.331268,311.496002 401.129669,292.453735 
	C409.504120,285.752899 414.918823,277.417053 417.035583,266.919678 
	C418.077759,261.751343 421.389648,259.405060 426.746674,260.022400 
	C431.404816,260.559204 433.285370,262.690125 432.909393,268.345001 
	C432.639343,272.407288 431.858887,276.545166 430.560852,280.398224 
	C429.314880,284.096527 427.109161,287.471497 424.817749,291.988953 
	C427.996094,292.383514 430.632996,292.710876 433.705719,293.048523 
	C437.102936,298.199615 440.377686,303.189758 442.940094,308.522247 
	C445.658508,314.179474 447.700531,320.161743 449.985352,326.824402 
	C450.303192,329.592987 450.908264,331.527954 451.002472,333.487518 
	C451.362640,340.979675 451.558411,348.479736 451.815582,355.976868 
	C451.100220,363.683777 447.352417,370.099457 442.604828,375.826538 
	C432.542389,387.964996 419.115082,393.185730 403.647034,392.905884 
	C392.157440,392.698059 380.681732,391.685272 369.203217,390.976776 
	C368.435883,390.929443 367.696869,390.422546 366.146393,390.129944 
	C360.423553,388.715637 355.459198,387.425140 350.581757,385.863251 
	C334.351440,380.665894 319.867310,372.633362 308.815216,359.313599 
	C300.792542,349.644775 296.359589,338.296448 293.839417,326.114746 
	C296.288025,325.784363 298.736633,325.453979 301.989746,325.068878 
	C304.866241,324.347687 306.938232,323.681213 309.010254,323.014740 
	C309.010254,323.014740 309.000000,323.000000 309.339050,323.006042 
	C310.453186,322.677887 311.228271,322.343719 312.003357,322.009552 
	C312.003357,322.009552 312.000000,322.000000 312.224060,321.890228 
	C312.721313,321.580994 312.926819,321.326752 313.064545,321.017731 
	C313.491394,321.014221 313.918274,321.010712 315.018433,320.960571 
	C317.801483,319.282501 319.911224,317.651031 322.020996,316.019562 
	C322.020996,316.019562 322.000000,316.000000 322.327454,315.977173 
	C323.447571,315.305786 324.240265,314.657166 325.032928,314.008545 
	C325.333527,313.890533 325.581879,313.703278 326.235046,313.184998 
	C328.801544,310.287354 330.911011,307.651459 333.020508,305.015564 
	C333.020508,305.015564 333.006348,304.998871 333.224182,304.889954 
	C333.708954,304.575653 333.906677,304.317291 334.035156,304.005951 
z"/>
<path fill="#803036" opacity="1.000000" stroke="none" 
	d="
M293.407684,326.083923 
	C296.359589,338.296448 300.792542,349.644775 308.815216,359.313599 
	C319.867310,372.633362 334.351440,380.665894 350.581757,385.863251 
	C355.459198,387.425140 360.423553,388.715637 365.748230,390.178101 
	C364.806488,402.898346 363.541016,415.579651 362.099548,428.240906 
	C360.843262,439.275482 359.477875,450.299591 357.987244,461.304840 
	C357.115356,467.742096 356.252563,474.216858 354.743500,480.521027 
	C353.323547,486.453064 349.487762,490.601288 342.447327,491.986755 
	C341.021362,492.046204 340.409943,492.180145 339.396790,492.355469 
	C328.185516,492.585693 317.375946,492.774567 306.566376,492.963440 
	C306.566376,492.963440 306.499969,493.103210 306.270142,492.681152 
	C304.956604,492.159241 303.872864,492.059326 302.789124,491.959412 
	C295.584320,489.583221 292.904266,483.916260 291.964722,477.014709 
	C290.238220,464.332214 289.345428,451.468536 286.603699,439.010773 
	C283.777588,426.169434 278.822388,413.812500 275.425995,401.076355 
	C272.122711,388.689362 267.097076,377.090485 260.763031,366.073212 
	C255.586868,357.069946 249.730438,348.457764 244.050354,339.353760 
	C244.496506,337.878235 244.966766,336.656830 245.655655,335.574615 
	C250.145370,328.521362 254.682571,321.498322 259.545166,313.935089 
	C268.651337,321.179108 279.942749,326.089569 293.407684,326.083923 
z"/>
<path fill="#FC5564" opacity="1.000000" stroke="none" 
	d="
M160.066055,426.217865 
	C158.377289,432.255646 156.902542,438.363617 154.951538,444.315430 
	C151.718140,454.179321 146.113937,462.613983 137.969971,469.863312 
	C135.796295,468.688629 134.147125,467.557831 132.755051,466.169220 
	C117.901169,451.352539 103.100479,436.482513 88.244621,421.667816 
	C86.728432,420.155792 84.948326,418.908417 83.406998,417.187561 
	C83.708725,414.872711 84.049263,412.909058 84.055824,410.944275 
	C84.132439,388.001556 84.158806,365.058655 84.555405,342.295410 
	C90.245094,343.130615 95.649178,343.436340 100.897415,344.506378 
	C117.759079,347.944305 131.269196,357.176117 142.350983,369.959717 
	C151.473938,380.483673 157.565308,392.600250 159.167679,407.165283 
	C159.482941,413.842102 159.774506,420.029968 160.066055,426.217865 
z"/>
<path fill="#F0C41D" opacity="1.000000" stroke="none" 
	d="
M83.290665,417.538239 
	C84.948326,418.908417 86.728432,420.155792 88.244621,421.667816 
	C103.100479,436.482513 117.901169,451.352539 132.755051,466.169220 
	C134.147125,467.557831 135.796295,468.688629 137.663208,470.010498 
	C126.665535,481.632080 113.313446,489.320770 97.173210,492.062347 
	C83.949959,494.308472 70.808090,493.704102 58.535183,488.740234 
	C50.293758,485.406952 42.607121,480.167328 35.499649,474.704224 
	C27.143257,468.281097 20.432884,459.925262 16.032619,450.314484 
	C11.498941,440.412354 8.377197,429.934692 9.537039,418.271973 
	C34.459194,417.704987 58.874928,417.621613 83.290665,417.538239 
z"/>
<path fill="#2F80B7" opacity="1.000000" stroke="none" 
	d="
M83.406998,417.187561 
	C58.874928,417.621613 34.459194,417.704987 9.585244,417.805969 
	C7.795299,398.548615 15.200148,382.447357 27.378111,368.171967 
	C30.532564,364.474213 34.179028,361.196167 38.145424,357.342468 
	C43.549004,353.968353 48.406662,350.977112 53.540596,348.117004 
	C59.927284,346.643829 65.993172,344.831543 72.164200,343.510437 
	C76.094994,342.668915 80.181671,342.555634 84.198448,342.115814 
	C84.158806,365.058655 84.132439,388.001556 84.055824,410.944275 
	C84.049263,412.909058 83.708725,414.872711 83.406998,417.187561 
z"/>
<path fill="#4C525F" opacity="1.000000" stroke="none" 
	d="
M53.264324,347.985901 
	C48.406662,350.977112 43.549004,353.968353 38.329662,357.074219 
	C34.267624,350.658264 30.431524,344.199799 26.912365,337.572998 
	C24.364281,332.774780 20.683744,327.873932 20.289864,322.802795 
	C19.716568,315.421753 21.067572,307.829681 25.916225,301.283081 
	C34.090370,290.246490 41.814205,278.876312 49.841816,267.326141 
	C58.974457,253.351639 67.992722,239.697433 77.374199,225.868225 
	C82.194786,228.754181 86.652168,231.815170 91.109543,234.876160 
	C82.993393,247.246521 74.852776,259.600952 66.790527,272.006348 
	C65.725555,273.645020 65.060150,275.543365 63.897079,277.791321 
	C56.332031,289.071503 49.454613,300.161407 41.682396,310.584076 
	C37.227516,316.558167 38.303524,321.498260 41.543316,327.085968 
	C45.549324,333.995209 49.365898,341.014282 53.264324,347.985901 
z"/>
<path fill="#4C515F" opacity="1.000000" stroke="none" 
	d="
M160.459045,426.173584 
	C159.774506,420.029968 159.482941,413.842102 159.536194,407.246063 
	C171.580658,401.377930 183.340714,396.040710 194.923187,390.342468 
	C196.957581,389.341614 198.247574,386.827606 200.250153,384.785950 
	C200.660263,373.044128 200.701599,361.528839 200.742935,350.013519 
	C200.837036,338.970490 200.931152,327.927460 201.468292,316.466095 
	C207.203094,316.074005 212.494858,316.100281 217.786636,316.126526 
	C217.861023,327.475861 217.935410,338.825165 218.149139,350.629944 
	C218.288467,351.085358 218.128113,351.165497 217.773590,351.358276 
	C217.283325,359.292999 217.052124,367.035004 217.059372,374.776825 
	C217.062225,377.823639 217.597763,380.869965 217.890732,383.916534 
	C217.969025,393.419861 213.421585,400.589020 205.430969,404.881561 
	C191.914352,412.142639 177.981827,418.630890 164.195740,425.386108 
	C163.199097,425.874481 161.972000,425.892578 160.459045,426.173584 
z"/>
<path fill="#4A525F" opacity="1.000000" stroke="none" 
	d="
M57.900352,50.989059 
	C55.378853,48.946461 51.998486,47.356239 50.608673,44.717575 
	C49.504723,42.621635 49.610935,38.844501 53.146103,37.153946 
	C53.931290,36.778458 54.402546,35.746510 55.831406,35.049393 
	C66.462921,35.051113 76.281372,35.020264 86.099831,34.989410 
	C90.775658,34.864761 92.393204,38.166416 92.864586,41.830299 
	C93.438309,46.289486 91.696190,49.819229 86.025360,50.987499 
	C76.085991,50.941593 66.993172,50.965324 57.900352,50.989059 
z"/>
<path fill="#8A8D94" opacity="1.000000" stroke="none" 
	d="
M5.918125,17.377157 
	C46.525627,17.018982 87.422493,17.014338 128.319351,16.999348 
	C131.311356,16.998251 134.303329,16.922289 137.777649,16.952171 
	C137.241547,17.358372 136.223465,17.985527 135.204681,17.986656 
	C92.688782,18.033747 50.172821,18.025774 7.656871,18.010639 
	C7.173709,18.010468 6.690612,17.826378 5.918125,17.377157 
z"/>
<path fill="#858B91" opacity="1.000000" stroke="none" 
	d="
M494.940674,484.609192 
	C457.397491,485.016693 419.615936,485.048340 381.359497,485.035400 
	C381.890594,484.653931 382.896301,484.023743 383.902710,484.022552 
	C420.345795,483.979126 456.788910,483.993286 493.232056,484.010834 
	C493.722168,484.011078 494.212219,484.155975 494.940674,484.609192 
z"/>
<path fill="#888D93" opacity="1.000000" stroke="none" 
	d="
M482.165588,287.413452 
	C483.038361,289.344910 484.852325,291.645813 484.867615,293.958588 
	C485.061707,323.376617 484.997345,352.796326 484.999786,382.215607 
	C484.999878,383.545288 485.009460,384.874939 485.001709,386.684937 
	C484.658691,385.471405 484.044312,383.778137 484.040833,382.083649 
	C483.982269,353.493958 484.048401,324.903870 483.924866,296.314606 
	C483.912567,293.470215 482.847351,290.630341 482.165588,287.413452 
z"/>
<path fill="#AFB2B9" opacity="1.000000" stroke="none" 
	d="
M398.088348,434.395050 
	C429.748718,434.068695 461.610626,434.140137 493.698120,434.569214 
	C462.045746,434.882141 430.167816,434.837494 398.088348,434.395050 
z"/>
<path fill="#C1C4CD" opacity="1.000000" stroke="none" 
	d="
M493.820801,417.589844 
	C462.632629,418.001617 431.279022,418.005341 399.455872,418.005615 
	C399.635101,417.667358 400.283966,417.039581 400.932556,417.039856 
	C431.840179,417.052917 462.747772,417.120422 493.820801,417.589844 
z"/>
<path fill="#7B828D" opacity="1.000000" stroke="none" 
	d="
M439.054688,467.410400 
	C457.000214,467.117371 475.165588,467.214294 493.619690,467.601379 
	C475.697144,467.861115 457.485809,467.830719 439.054688,467.410400 
z"/>
<path fill="#E6E7EE" opacity="1.000000" stroke="none" 
	d="
M493.919189,450.602173 
	C476.672974,451.041260 459.243530,451.071960 441.338379,451.056824 
	C441.517426,450.671753 442.172333,450.036224 442.826782,450.036682 
	C459.796539,450.048767 476.766235,450.127014 493.919189,450.602173 
z"/>
<path fill="#B0B3B9" opacity="1.000000" stroke="none" 
	d="
M52.982277,67.618797 
	C37.739750,68.064034 22.261330,68.127090 6.311226,68.094818 
	C6.336128,67.654579 6.833447,67.007446 7.329187,67.008652 
	C22.468348,67.045486 37.607353,67.146004 52.982277,67.618797 
z"/>
<path fill="#C3C6CF" opacity="1.000000" stroke="none" 
	d="
M7.512882,84.993149 
	C8.551065,84.641106 10.051892,84.068161 11.556299,84.058609 
	C25.221399,83.971764 38.887127,83.983269 53.061577,83.981033 
	C52.061329,84.328728 50.553970,84.940727 49.042755,84.950394 
	C35.354618,85.038040 21.665802,85.020363 7.512882,84.993149 
z"/>
<path fill="#FDD0D5" opacity="1.000000" stroke="none" 
	d="
M452.030579,355.597839 
	C451.558411,348.479736 451.362640,340.979675 451.002472,333.487518 
	C450.908264,331.527954 450.303192,329.592987 449.931091,327.209900 
	C450.857391,329.224640 452.496399,331.652802 452.577881,334.132202 
	C452.808563,341.149811 452.401428,348.188446 452.030579,355.597839 
z"/>
<path fill="#FFE8E7" opacity="1.000000" stroke="none" 
	d="
M306.851440,493.326202 
	C317.375946,492.774567 328.185516,492.585693 339.416382,492.575073 
	C339.837677,492.753357 340.105438,493.104401 340.105438,493.104370 
	C338.587891,493.401947 337.069824,493.958038 335.552887,493.954956 
	C326.080597,493.935822 316.608582,493.791687 306.851440,493.326202 
z"/>
<path fill="#797E86" opacity="1.000000" stroke="none" 
	d="
M217.943542,383.456299 
	C217.597763,380.869965 217.062225,377.823639 217.059372,374.776825 
	C217.052124,367.035004 217.283325,359.292999 217.737427,351.276245 
	C218.035980,361.666321 218.016159,372.331207 217.943542,383.456299 
z"/>
<path fill="#FEC1CC" opacity="1.000000" stroke="none" 
	d="
M483.456543,254.769211 
	C483.047302,247.231430 482.973724,239.478424 482.929626,231.269592 
	C486.392059,238.616440 485.274384,246.578812 483.456543,254.769211 
z"/>
<path fill="#7C8289" opacity="1.000000" stroke="none" 
	d="
M85.874916,34.611080 
	C76.281372,35.020264 66.462921,35.051113 56.154961,35.021004 
	C57.197899,34.644650 58.729706,34.061867 60.262875,34.058258 
	C68.725067,34.038368 77.187592,34.159782 85.874916,34.611080 
z"/>
<path fill="#E7E9F0" opacity="1.000000" stroke="none" 
	d="
M58.083706,51.397179 
	C66.993172,50.965324 76.085991,50.941593 85.654854,50.953003 
	C84.979561,51.324879 83.829025,51.949013 82.676765,51.952198 
	C74.540398,51.974693 66.403671,51.869644 58.083706,51.397179 
z"/>
<path fill="#C28E92" opacity="1.000000" stroke="none" 
	d="
M302.927856,492.352264 
	C303.872864,492.059326 304.956604,492.159241 306.196716,492.656799 
	C305.257599,492.951324 304.162079,492.848206 302.927856,492.352264 
z"/>
<path fill="#C28E92" opacity="1.000000" stroke="none" 
	d="
M340.481995,493.097595 
	C340.105438,493.104401 339.837677,492.753357 339.818085,492.533752 
	C340.409943,492.180145 341.021362,492.046204 342.103882,491.965637 
	C342.002838,492.376282 341.430695,492.733551 340.481995,493.097595 
z"/>
<path fill="#F1C01F" opacity="1.000000" stroke="none" 
	d="
M431.112488,233.751617 
	C423.489532,235.722229 415.913330,233.254944 412.053955,227.147461 
	C408.474701,221.483215 407.846069,215.337967 411.453278,209.269730 
	C415.375702,202.671204 421.377441,200.291641 428.762054,201.119232 
	C437.951447,202.149078 443.225281,210.004684 442.737427,222.152481 
	C438.934265,226.219742 435.161743,229.878433 431.112488,233.751617 
z"/>
<path fill="#000000" opacity="1.000000" stroke="none" 
	d="
M199.881348,385.012390 
	C198.247574,386.827606 196.957581,389.341614 194.923187,390.342468 
	C183.340714,396.040710 171.580658,401.377930 159.512482,406.757141 
	C157.565308,392.600250 151.473938,380.483673 142.350983,369.959717 
	C131.269196,357.176117 117.759079,347.944305 100.897415,344.506378 
	C95.649178,343.436340 90.245094,343.130615 84.555405,342.295410 
	C80.181671,342.555634 76.094994,342.668915 72.164200,343.510437 
	C65.993172,344.831543 59.927284,346.643829 53.540600,348.117004 
	C49.365898,341.014282 45.549324,333.995209 41.543316,327.085968 
	C38.303524,321.498260 37.227516,316.558167 41.682396,310.584076 
	C49.454613,300.161407 56.332031,289.071503 63.930290,278.143982 
	C74.753418,286.993500 86.020889,294.123322 100.618492,292.924286 
	C103.730995,292.668640 104.499603,294.599365 105.355553,296.741852 
	C111.006088,310.885468 121.721611,319.357727 135.850693,324.024261 
	C136.616058,324.277069 137.345337,324.639160 138.641510,325.349945 
	C146.165421,325.768280 153.139236,325.787018 160.113068,325.805786 
	C163.533463,324.395020 165.526047,325.761810 167.406937,328.787262 
	C174.309875,339.890717 184.290390,346.886047 197.574188,350.356567 
	C198.768204,351.832550 199.901169,352.938660 199.912018,354.055695 
	C200.012238,364.373505 199.918594,374.693237 199.881348,385.012390 
z"/>
<path fill="#FDD4AD" opacity="1.000000" stroke="none" 
	d="
M200.937592,211.889862 
	C209.364182,190.839935 217.707062,170.170181 225.945084,149.458740 
	C227.508011,145.529343 229.834381,142.939224 234.312485,142.856293 
	C238.621887,142.776474 240.985275,145.207352 242.478119,148.941650 
	C253.410355,176.288162 264.412292,203.606918 275.274048,230.981339 
	C277.158539,235.730682 274.921417,240.355560 270.474182,242.032578 
	C266.081696,243.688934 261.984772,241.919067 259.951904,237.206650 
	C257.778412,232.168243 255.744202,227.063599 253.842972,221.916306 
	C252.792938,219.073517 251.292572,217.704025 248.006027,217.783920 
	C238.853714,218.006439 229.685959,217.686417 220.540604,218.023209 
	C218.753952,218.089020 216.258026,219.749908 215.441086,221.360687 
	C213.041718,226.091675 211.386536,231.194611 209.320679,236.101669 
	C206.942886,241.749634 202.617737,243.935822 197.975189,241.988419 
	C193.187897,239.980255 191.563110,235.564270 193.744507,229.850800 
	C195.998825,223.946274 198.451553,218.117493 200.937592,211.889862 
M236.507462,179.020233 
	C235.863693,177.706833 235.219925,176.393433 234.036255,173.978546 
	C230.265411,183.644241 227.024017,191.952789 223.581772,200.776184 
	C231.252396,200.776184 237.816742,200.776184 245.197601,200.776184 
	C242.276276,193.432220 239.546127,186.568802 236.507462,179.020233 
z"/>
<path fill="#E14D60" opacity="1.000000" stroke="none" 
	d="
M293.249512,100.106125 
	C285.561523,94.350716 279.056702,87.263695 269.364075,85.676506 
	C254.573029,83.254410 240.926971,85.283974 229.863586,96.596504 
	C228.488586,98.002480 226.962051,99.463470 225.214584,100.261002 
	C221.178619,102.102974 217.423172,100.889549 215.128754,97.356644 
	C212.885925,93.903183 213.050903,89.631798 216.017746,86.738434 
	C223.721558,79.225410 232.196091,72.789116 242.938187,69.975891 
	C260.995361,65.246925 277.842102,68.047508 293.270294,78.324417 
	C297.348938,81.041252 300.953033,84.834358 303.834534,88.814186 
	C305.070221,90.520859 304.781067,94.454971 303.634857,96.514496 
	C301.630737,100.115547 298.226868,102.482307 293.249512,100.106125 
z"/>
<path fill="#FDD5AE" opacity="1.000000" stroke="none" 
	d="
M309.771179,235.114792 
	C308.668182,236.942642 307.977234,239.616486 306.366150,240.401245 
	C303.912811,241.596237 300.174438,242.690536 298.169006,241.614639 
	C295.751129,240.317459 293.119110,236.725388 293.084900,234.094162 
	C292.726318,206.493362 292.862030,178.886047 292.881805,151.280533 
	C292.884766,147.117783 294.882202,144.219833 298.920593,143.169067 
	C303.730377,141.917587 306.910736,144.195084 309.065155,149.123260 
	C309.204681,175.914703 309.182678,202.048508 309.215240,228.182251 
	C309.218109,230.493332 309.577423,232.803955 309.771179,235.114792 
z"/>
<path fill="#F1C11F" opacity="1.000000" stroke="none" 
	d="
M91.502060,234.856308 
	C86.652168,231.815170 82.194786,228.754181 77.480957,225.552002 
	C76.993996,221.316956 76.030128,217.099014 76.697144,213.156998 
	C77.824776,206.492722 84.192032,201.521896 90.782425,201.015335 
	C98.075584,200.454758 105.008026,204.133698 107.780365,210.035873 
	C110.606087,216.051697 109.044930,224.120148 104.614853,228.993195 
	C101.118233,232.839432 96.901924,234.560287 91.502060,234.856308 
z"/>
<path fill="#F1C11E" opacity="1.000000" stroke="none" 
	d="
M217.969009,315.817596 
	C212.494858,316.100281 207.203094,316.074005 201.503326,315.994843 
	C191.497147,309.579956 191.418182,299.917175 194.507538,293.270020 
	C197.107956,287.674835 204.271988,283.692078 210.002228,284.175446 
	C217.230270,284.785156 223.035095,288.928375 224.933762,294.832977 
	C227.345016,302.331635 225.546539,309.035339 219.895294,313.728241 
	C219.259567,314.256195 218.730103,314.912109 217.969009,315.817596 
z"/>
<path fill="#F0545C" opacity="1.000000" stroke="none" 
	d="
M310.091614,234.817017 
	C309.577423,232.803955 309.218109,230.493332 309.215240,228.182251 
	C309.182678,202.048508 309.204681,175.914703 309.279419,149.414749 
	C309.898407,150.113052 310.928619,151.176102 310.931763,152.242218 
	C311.010925,179.039642 310.985840,205.837418 310.948822,232.635086 
	C310.947968,233.263382 310.598755,233.891190 310.091614,234.817017 
z"/>
<path fill="#FED7DD" opacity="1.000000" stroke="none" 
	d="
M159.803467,325.509766 
	C153.139236,325.787018 146.165421,325.768280 139.017426,325.354218 
	C145.726776,325.043854 152.610321,325.128815 159.803467,325.509766 
z"/>
<path fill="#E6E4EB" opacity="1.000000" stroke="none" 
	d="
M200.250122,384.785919 
	C199.918594,374.693237 200.012238,364.373505 199.912018,354.055695 
	C199.901169,352.938660 198.768204,351.832550 197.957291,350.335266 
	C198.504669,349.950439 199.250473,349.951752 200.369614,349.983276 
	C200.701599,361.528839 200.660263,373.044128 200.250122,384.785919 
z"/>
<path fill="#F95C6D" opacity="1.000000" stroke="none" 
	d="
M332.673401,305.053589 
	C330.911011,307.651459 328.801544,310.287354 326.349640,312.979126 
	C328.113556,310.387207 330.219910,307.739380 332.673401,305.053589 
z"/>
<path fill="#F95C6D" opacity="1.000000" stroke="none" 
	d="
M321.652802,316.019897 
	C319.911224,317.651031 317.801483,319.282501 315.338531,320.954102 
	C317.085114,319.336212 319.184845,317.678192 321.652802,316.019897 
z"/>
<path fill="#F95C6D" opacity="1.000000" stroke="none" 
	d="
M308.627380,323.017059 
	C306.938232,323.681213 304.866241,324.347687 302.388550,325.007935 
	C304.070099,324.340942 306.157318,323.680145 308.627380,323.017059 
z"/>
<path fill="#F95C6D" opacity="1.000000" stroke="none" 
	d="
M324.679077,314.012634 
	C324.240265,314.657166 323.447571,315.305786 322.336304,315.988068 
	C322.786896,315.353424 323.556061,314.685059 324.679077,314.012634 
z"/>
<path fill="#F95C6D" opacity="1.000000" stroke="none" 
	d="
M311.667236,322.007385 
	C311.228271,322.343719 310.453186,322.677887 309.343384,323.013153 
	C309.782837,322.677887 310.556976,322.341522 311.667236,322.007385 
z"/>
<path fill="#F95C6D" opacity="1.000000" stroke="none" 
	d="
M312.838196,321.122864 
	C312.926819,321.326752 312.721313,321.580994 312.227905,321.892517 
	C312.126587,321.681519 312.327942,321.422668 312.838196,321.122864 
z"/>
<path fill="#F95C6D" opacity="1.000000" stroke="none" 
	d="
M333.815552,304.119812 
	C333.906677,304.317291 333.708954,304.575653 333.225525,304.898041 
	C333.126434,304.695831 333.322113,304.435364 333.815552,304.119812 
z"/>
<path fill="#F85A64" opacity="1.000000" stroke="none" 
	d="
M236.661713,179.362808 
	C239.546127,186.568802 242.276276,193.432220 245.197601,200.776184 
	C237.816742,200.776184 231.252396,200.776184 223.581772,200.776184 
	C227.024017,191.952789 230.265411,183.644241 234.036255,173.978546 
	C235.219925,176.393433 235.863693,177.706833 236.661713,179.362808 
z"/>
</svg>