<?xml version="1.0" standalone="no"?><!DOCTYPE svg PUBLIC "-//W3C//DTD SVG 1.1//EN" "http://www.w3.org/Graphics/SVG/1.1/DTD/svg11.dtd"><svg t="1704936273665" class="icon" viewBox="0 0 1024 1024" version="1.1" xmlns="http://www.w3.org/2000/svg" p-id="3498" xmlns:xlink="http://www.w3.org/1999/xlink" width="200" height="200"><path d="M107.861 611.67a307.2 307.2 0 1 0 614.4 0 307.2 307.2 0 1 0-614.4 0z" fill="#E9EAEB" p-id="3499"></path><path d="M357.717 368.64h-1.365l-163.84 95.573v177.494l165.205 95.573 162.475-95.573V464.213z" fill="#FFFFFF" p-id="3500"></path><path d="M357.717 753.664L180.224 649.899V456.02l173.397-101.034h6.827l4.096 1.365 169.301 99.67v192.511L357.717 753.664z m-151.552-120.15l150.187 87.382 150.187-87.381v-161.11l-150.187-87.381-150.187 87.381v161.11z" fill="#2A5082" p-id="3501"></path><path d="M357.717 576.17l-172.032-99.669 15.019-24.576 157.013 91.478 155.648-91.478 15.019 24.576z" fill="#2A5082" p-id="3502"></path><path d="M342.699 559.787h27.306V737.28H342.7z" fill="#2A5082" p-id="3503"></path><path d="M861.525 273.067h27.307v81.92h-27.307z" fill="#BCC0C4" p-id="3504"></path><path d="M834.219 300.373h81.92v27.307h-81.92zM192.512 204.8h27.307v81.92h-27.307z" fill="#BCC0C4" p-id="3505"></path><path d="M165.205 232.107h81.92v27.306h-81.92z" fill="#BCC0C4" p-id="3506"></path><path d="M521.557 122.88h-1.365l-163.84 95.573V737.28l165.205 95.573 162.475-95.573V218.453z" fill="#A3D4FF" p-id="3507"></path><path d="M521.557 849.237L344.064 745.472v-535.21l173.397-101.035h6.827l4.096 1.365 169.301 99.67v533.845l-176.128 105.13zM370.005 729.088l150.187 87.381 150.187-87.381V226.645l-150.187-87.381-150.187 87.381v502.443z" fill="#2A5082" p-id="3508"></path><path d="M521.557 330.41l-172.032-99.669 15.019-24.576 157.013 91.478 155.648-91.478 15.019 24.576z" fill="#2A5082" p-id="3509"></path><path d="M506.539 314.027h27.306v518.826H506.54z" fill="#2A5082" p-id="3510"></path><path d="M685.397 354.987h-1.365l-163.84 95.573v382.293l165.205 95.574 162.475-95.574V450.56z" fill="#E9EAEB" p-id="3511"></path><path d="M685.397 944.81L507.904 841.046V442.368l173.397-101.035h6.827l4.096 1.366 169.301 99.669V839.68L685.397 944.81zM533.845 824.662l150.187 87.382 150.187-87.382V458.752l-150.187-87.381-150.187 87.381v365.91z" fill="#2A5082" p-id="3512"></path><path d="M685.397 562.517l-172.032-99.669 15.019-24.576 157.013 91.477 155.648-91.477 15.019 24.576z" fill="#2A5082" p-id="3513"></path><path d="M670.379 546.133h27.306v382.294H670.38z" fill="#2A5082" p-id="3514"></path><path d="M794.624 191.147c-30.037 0-54.613-24.576-54.613-54.614s24.576-54.613 54.613-54.613 54.613 24.576 54.613 54.613-24.576 54.614-54.613 54.614z m0-81.92c-15.019 0-27.307 12.288-27.307 27.306s12.288 27.307 27.307 27.307 27.307-12.288 27.307-27.307-12.288-27.306-27.307-27.306z" fill="#BCC0C4" p-id="3515"></path></svg>
